<svg width="27" height="20" viewBox="0 0 27 20" fill="none" xmlns="http://www.w3.org/2000/svg">
<path d="M22.7639 8.81602C22.1812 4.22669 18.2505 0.666687 13.5052 0.666687C9.83054 0.666687 6.63854 2.81469 5.18121 6.20002C2.31721 7.05602 0.171875 9.76002 0.171875 12.6667C0.171875 16.3427 3.16254 19.3334 6.83854 19.3334H8.17188V16.6667H6.83854C4.63321 16.6667 2.83854 14.872 2.83854 12.6667C2.83854 10.7947 4.43721 8.99069 6.40254 8.64535L7.17721 8.50935L7.43321 7.76535C8.37054 5.03069 10.6972 3.33335 13.5052 3.33335C17.1812 3.33335 20.1719 6.32402 20.1719 10V11.3334H21.5052C22.9759 11.3334 24.1719 12.5294 24.1719 14C24.1719 15.4707 22.9759 16.6667 21.5052 16.6667H18.8385V19.3334H21.5052C24.4465 19.3334 26.8385 16.9414 26.8385 14C26.837 12.8047 26.4347 11.6444 25.696 10.7047C24.9574 9.76492 23.925 9.09994 22.7639 8.81602Z" fill="#FAFAFA"/>
<path d="M14.8385 12.6667V7.33335H12.1719V12.6667H8.17188L13.5052 19.3334L18.8385 12.6667H14.8385Z" fill="#FAFAFA"/>
</svg>
