<svg width="23" height="20" viewBox="0 0 23 20" fill="none" xmlns="http://www.w3.org/2000/svg">
<path d="M8.50038 1.5V18.5M1.96438 7.344C1.71638 7.344 1.48938 7.142 1.50038 6.879C1.56738 5.337 1.75538 4.333 2.28038 3.539C2.57984 3.08653 2.95539 2.68933 3.39038 2.365C4.55538 1.5 6.20038 1.5 9.49238 1.5H13.5064C16.7984 1.5 18.4434 1.5 19.6104 2.365C20.0414 2.685 20.4174 3.082 20.7194 3.539C21.2444 4.333 21.4324 5.337 21.4994 6.879C21.5104 7.142 21.2834 7.344 21.0344 7.344C19.6484 7.344 18.5244 8.533 18.5244 10C18.5244 11.467 19.6484 12.656 21.0344 12.656C21.2834 12.656 21.5104 12.858 21.4994 13.122C21.4324 14.663 21.2444 15.667 20.7194 16.462C20.4198 16.9141 20.0443 17.311 19.6094 17.635C18.4434 18.5 16.7984 18.5 13.5064 18.5H9.49338C6.20138 18.5 4.55638 18.5 3.38938 17.635C2.95475 17.3106 2.57954 16.9134 2.28038 16.461C1.75538 15.667 1.56738 14.663 1.50038 13.121C1.48938 12.858 1.71638 12.656 1.96438 12.656C3.35038 12.656 4.47438 11.467 4.47438 10C4.47438 8.533 3.35038 7.344 1.96438 7.344Z" stroke="white" stroke-width="1.5" stroke-linecap="round" stroke-linejoin="round"/>
</svg>
